# xmcd
#
# Track frame offsets: 
#        150
#        19043
#        36928
#        55087
#        72703
#        88672
#        110268
#        127301
#        145370
#        161902
#
# Disc length: 2383 seconds
#
# Revision: 0
# Processed by: cddbd v1.5.1PL0 Copyright (c) Steve Scherf et al.
# Submitted via: ExactAudioCopy v0.95a5
#
DISCID=95094d0a
DTITLE=El Gringo - Pero Como Te Olvido
DYEAR=2005
DGENRE=Latin
TTITLE0=Yo Me Oculto
TTITLE1=Pero Como Te Olvido
TTITLE2=Que Viene A Hacer Aqui
TTITLE3=Me Voy De Ti
TTITLE4=Tu Estas Mal
TTITLE5=Yo No Soy Facil
TTITLE6=Ella Se Fue Con Otro
TTITLE7=No Se Donde Buscar
TTITLE8=Ahora El Que Rie Soy Yo
TTITLE9=La Ultima Cancion
EXTD=
EXTT0=
EXTT1=
EXTT2=
EXTT3=
EXTT4=
EXTT5=
EXTT6=
EXTT7=
EXTT8=
EXTT9=
PLAYORDER=
